<?xml version="1.0" encoding="utf-8"?>
<!-- Generator: Adobe Illustrator 22.0.0, SVG Export Plug-In . SVG Version: 6.00 Build 0)  -->
<svg version="1.1" id="Layer_1" xmlns="http://www.w3.org/2000/svg" xmlns:xlink="http://www.w3.org/1999/xlink" x="0px" y="0px"
	 viewBox="0 0 602 599" style="enable-background:new 0 0 602 599;" xml:space="preserve">
<style type="text/css">
	.st0{fill:#FFFFFF;}
	.st1{fill:#EB7859;}
	.st2{fill:#3B5998;}
	.st3{fill:#0A0A0A;}
	.st4{fill:#070707;}
	.st5{fill:#020202;}
	.st6{fill:#050505;}
	.st7{fill:#4A3B34;}
</style>
<path class="st0" d="M253.5,143.8c7.5-1.6,15.9-0.3,21.6,5.2c7.3,6.8,9.4,17.4,9.4,27c0.1,8.1-0.2,17.2-5.7,23.8
	c-3.2,4.2-9.2,3.6-13.7,2.3c-9.8-4.1-17.9-11.6-24-20.2c-3.8-5.9-6.6-13.1-4.7-20.1C238.2,153.3,245,145.9,253.5,143.8z"/>
<path class="st0" d="M320.2,144.1c4.4-1.3,9.3-1.2,13.8-0.3c10.2,2.6,17,12.9,17.3,23.2c-0.7,11-8.4,19.9-16.3,26.9
	c-6.4,5.2-14.3,10.6-23,8.5c-4.6-2.1-6.8-7-8.1-11.6c-1.9-8.5-1.6-17.4-0.2-25.9c0.7-4.7,3-9,5.4-13
	C311.9,148.4,315.9,145.7,320.2,144.1z"/>
<path class="st0" d="M208.4,198.6c7.3-2.8,16.3-1.6,22.1,3.9c6.7,6.6,12.8,14.3,14.9,23.6c0.7,3.5,1,7.8-1.9,10.5
	c-4.2,4.4-10.9,4.3-16.5,4c-8.3-0.8-16.9-2.9-23.5-8.2c-5.7-4.6-8.1-12.4-6.6-19.5C197.9,206.6,202.7,201.4,208.4,198.6z"/>
<path class="st0" d="M361.7,199c5.1-2.5,11.2-2.4,16.4-0.4c11,3.7,15.7,18.4,9.9,28.3c-4.4,8.4-14.4,11.3-23,13.2
	c-6.7,0.9-14.5,1.8-20.4-2.4c-5.3-3.9-3.6-11.4-1.5-16.6C347.3,212.4,353.2,203.9,361.7,199z"/>
<path class="st0" d="M242,209c9.9-2.2,66,10.3,73.8,15.2c10.5,7.6,9.6,16.8,16.1,28.1c4.5,8.7,6.8,19.5,2.6,28.8
	c-5,13.9-22.2,22.5-36.2,17c-5.3-1.9-9-6.4-13.6-9.5c-1.3-1-3.2-0.6-4.3,0.5c-5,3.8-9.7,8.6-16.1,10c-13,3.1-27.6-4.3-32.7-16.6
	c-4.4-9.1-2.9-19.8,1.3-28.7c4.3-8.6,22-15.6,29.1-21.9C269.9,224.4,231.7,212.5,242,209z"/>
<path class="st1" d="M275.8,243.3c4.8-1.7-0.5,3.1-1.7,8.1c-0.8,4.8-7,7.2-11,4.5C258.3,253,270.2,244.5,275.8,243.3z"/>
<path class="st2" d="M447.6,249.3c3.5-1.2,7.8-2.3,11.2-0.1c1.9,1.2,1.8,3.7,1.8,5.7c-0.1,14.5,0.1,29-0.1,43.5
	c-4,0.7-8.4,1.2-12-1.2c-0.4-2.1-0.9-4.2-0.9-6.3C447.7,277.1,447.8,263.2,447.6,249.3z"/>
<path class="st2" d="M469.5,248.8c3.9-0.9,8.3-1.3,11.9,0.8c2.1,8,0.4,16.4,1.1,24.6c4.6-4.5,8.6-9.6,13.3-14c4.2-0.8,10,3,8.4,7.8
	c-1.9,4.9-7.3,7-10.3,11c0,1.3,1.3,2,2,2.9c3.3,3.2,6.6,6.5,9.9,9.7c-0.6,2.9-1.7,6.4-5.1,7c-4.8,1.4-8.7-2.5-11.3-6
	c-2.3-2.8-4.4-5.7-6.9-8.3c-0.1,4.6,0,9.2-0.1,13.8c-4.4,0.7-10.6,2-12.9-3C469.6,279.8,469.5,264.3,469.5,248.8z"/>
<path class="st3" d="M78.9,253c7.7-3.7,16.8-3.7,25-1.9c7.9,1.5,14.6,7.9,16.4,15.8c2,8.6,1.1,18.6-4.9,25.5
	c-5.9,6.4-15.2,8-23.5,7.6c-4.1-0.5-8.4-0.7-12-2.9c-2.9-2.5-2-6.7-2.1-10c0-7.3-0.1-14.7,0-22C78.1,261.1,76.8,256.6,78.9,253
	 M91.1,261c0,9.5-0.1,18.9,0,28.4c5.6,1.1,13.2-0.1,15.2-6.4c2-6.3,2.2-14.6-3-19.5C100.1,260.5,95.3,261,91.1,261z"/>
<path class="st2" d="M337.4,253.5c3.1-1.9,7.1-3.6,10.7-1.8c3.8,1.3,3.3,6.1,4.1,9.3c1.6,8.8,2.1,17.8,4.5,26.4
	c1.6-8.3,3.8-16.6,5.6-24.8c4.2-0.9,9-1.7,12.8,0.9c3.1,7.7,4.2,16,7,23.8c2.1-11.5,3.1-23.1,4.3-34.7c3.5-1.5,7.7-2.3,11.1-0.1
	c2.3,1.3,1.8,4.3,1.7,6.6c-1.3,12-3.3,24.1-6.8,35.7c-0.9,3.7-5.4,3.8-8.5,4.3c-3.5,0.1-8.4,0-10.2-3.6c-2-5.4-3.1-11.1-4.8-16.6
	c-1.7,6-2.8,12.2-4.6,18.2c-5.6,2.7-12.3,2.7-17.6-0.6c-1-2.5-2-4.9-2.6-7.5C341.1,277.3,338.9,265.5,337.4,253.5z"/>
<path class="st4" d="M140.3,260.5c7.6-1.9,16.8-0.3,21.9,6.1c6.2,8.1,5.9,21-1.4,28.4c-8.7,7.6-24.2,6.8-31-3
	c-4.3-6.5-4.5-15.3-1.2-22.3C130.9,265.1,135.4,261.8,140.3,260.5 M143.4,270.6c-4.7,3.4-4.6,10.4-2.7,15.3c1.6,4.6,8.8,5.3,11.1,1
	c2.1-4.1,2.3-9.4,0.3-13.6C150.6,270,146.4,269.1,143.4,270.6z"/>
<path class="st5" d="M179.1,263.1c7-4.1,16.1-4,23.4-0.6c2.6,1.4,5.8,3.2,5.9,6.5c0.1,9.7,0,19.3,0,29c0.2,5.6-3.6,10.7-8.6,12.9
	c-6.1,2.6-13.2,2.8-19.6,1c-2.1-0.6-4.4-1.5-5.4-3.6c-1.2-2.8-0.5-6,1.2-8.4c5.4,2.6,11.9,4.3,17.7,1.7c2.4-0.9,2.8-3.7,3.1-5.9
	c-5,1.4-10.4,2.1-15.3,0c-7.2-2.4-10.4-10.6-10-17.6C171.2,272.1,174,266.2,179.1,263.1 M185.7,272.8c-2.5,3.6-1.7,8.6,0.2,12.3
	c3.2,1.9,7,2.1,10.4,0.4c-0.1-4.7-0.1-9.4,0-14.1C192.8,269.8,188.2,269.6,185.7,272.8z"/>
<path class="st5" d="M223.6,262.7c7-3.7,15.8-3.6,22.8-0.2c2.5,1.3,5.4,3.1,5.7,6.2c0.3,9.4,0,18.8,0.1,28.2
	c0.2,5.2-2.4,10.6-7.1,13c-6.8,3.7-15.3,3.8-22.5,1.4c-2.9-0.9-4.5-3.6-5-6.4c0.8-1.6,0.6-4,2.5-4.9c5.5,2,11.8,4.1,17.4,1.3
	c2.5-0.9,2.7-3.8,3.1-6c-6,2.2-13.2,2.2-18.6-1.6c-5-3.5-7-9.9-6.6-15.8C215.1,272,218.1,265.7,223.6,262.7 M228.9,274
	c-1.5,3.3-1.4,7.5,0.7,10.5c2.6,2.9,6.9,2.6,10.2,1.2c0-4.9,0.3-9.7-0.1-14.5C236.2,269.4,230.5,269.9,228.9,274z"/>
<path class="st4" d="M260.7,261.1c3.8-1.3,8.1-1.6,11.8,0.4c0.6,1.8,1.1,3.6,1,5.6c-0.1,10.4,0,20.9,0,31.3c-4,0.7-8.3,1.3-11.9-1.1
	c-0.5-2.1-1-4.2-0.9-6.3C260.7,281,260.7,271.1,260.7,261.1z"/>
<path class="st6" d="M286,265c8.8-8.1,26-6.3,30.7,5.5c1.3,3.6,2.4,9.9-2.6,11c-6.9,1.5-14.1,2-21,3.4c1.2,1.8,2.6,3.6,4.8,4.1
	c5.4,1.9,11.1,0,16.3-1.6c1,2,2.8,4.3,1.8,6.6c-1,3.8-5.4,4.9-8.9,5.5c-8.4,1.6-18.5-0.6-23.5-8.1C278.8,283.4,279.1,271.8,286,265
	 M292.1,276.7c4.6-0.6,9.3-1.3,13.9-2.1c-1.3-2.3-3-5.1-6-4.6C295.8,269.4,292.5,272.8,292.1,276.7z"/>
<path class="st2" d="M406.6,264.8c1.5-3.6,5.8-4.2,9.2-4.8c6.8-0.7,14.6-0.7,19.9,4.1c3.1,2.6,4,6.9,3.8,10.8
	c-0.2,6.1,0.3,12.2-0.2,18.3c-1.9,3.7-6.2,5.2-10.1,6c-6.6,1.3-14,1.1-20.1-2.3c-6.7-3.8-6.8-15.2,0-18.9c5.6-2.7,12.1-2.2,18.1-3.3
	c-0.3-1.1-0.6-2.2-0.9-3.2c-5.5-2.8-11.8-1.4-17.4,0.4C406.2,271.1,406.1,267.2,406.6,264.8 M416.7,284.8c-0.1,0.9-0.2,2.7-0.2,3.7
	c3.2,2.3,7.2,1.6,10.8,0.9c0-2.1-0.1-4.2-0.1-6.3C423.6,283.1,420,283.5,416.7,284.8z"/>
<path class="st2" d="M511.5,268.5c1.7-5.7,8-8.1,13.5-8.6c5.1-0.3,10.9-0.2,14.9,3.3c2.4,2.5,1.4,6.2,0,8.9
	c-5.4-1.2-11.4-3.8-16.6-0.7c0,0.5,0.1,1.5,0.2,2c5.2,2.3,11.4,2.2,16,6c4.6,3.6,4.9,11,1.3,15.5c-4,4.4-10.3,5.2-15.8,5.1
	c-4.4-0.4-9.5-0.9-12.6-4.5c-2-2.7-1-6.6,1.3-8.8c5.2,2.4,11.6,4.6,17.1,1.6c-0.3-1.3-0.1-3-1.8-3.3c-4.9-1.6-10.7-1.7-14.7-5.3
	C510.8,277.1,510.7,272.3,511.5,268.5z"/>
<path class="st7" d="M61.7,337.2c0.8-0.1,2.2-0.2,3-0.3c0,3.3,0.1,6.6,0,10c3.9,0.2,7.8,0.2,11.7,0.1c0-3.4,0-6.8,0.1-10.2
	c0.7,0.1,2,0.4,2.7,0.5c0.3,7.6,0.1,15.2,0.1,22.8c-0.7,0-2.1,0-2.8,0c0-3.7,0-7.3,0-11c-3.9-0.1-7.8-0.1-11.7,0
	c-0.1,4.2,0.3,8.4-0.3,12.6c-0.1-0.5-0.4-1.5-0.5-2l-2.2,0.3C61.8,352.4,61.8,344.8,61.7,337.2z"/>
<path class="st7" d="M91.5,337.1c4.6-0.1,9.1-0.1,13.7,0c0,0.5,0.1,1.5,0.1,2c-3.6,0-7.1,0-10.7-0.1c-0.1,2.6-0.1,5.3-0.1,7.9
	c2.9,0.2,5.7,0,8.6,0.3c0.3,0.4,0.9,1.2,1.2,1.6c-3.2,0.3-6.5,0.3-9.7,0.3c0,3,0,6,0,8.9c3.5,0.1,7-0.1,10.5,0.2
	c0.1,0.5,0.3,1.4,0.5,1.9c-4.6,0-9.3,0-13.9-0.1C91.6,352.3,91.6,344.7,91.5,337.1z"/>
<path class="st7" d="M116.4,337.2c0.7-0.1,2.2-0.2,2.9-0.3c0.1,7,0.1,14,0,21c3.4,0.1,6.8-0.1,10.3,0.2c0.1,0.4,0.4,1.3,0.5,1.7
	c-4.6,0.2-9.1,0.2-13.6,0C116.4,352.3,116.5,344.8,116.4,337.2z"/>
<path class="st7" d="M139.3,337.3c4.2-0.3,8.9-1,12.6,1.5c3.5,2.3,3.2,7.9,0,10.2c-2.8,2-6.4,1.9-9.7,2.2c0.1,3,0.1,5.9,0.1,8.8
	c-0.7,0-2.2,0-2.9,0C139.4,352.4,139.4,344.9,139.3,337.3 M142.3,339.1c0.1,3.3,0.1,6.6,0.1,10c2.7-0.2,5.9,0.5,8.1-1.6
	c1.9-1.8,0.9-4.5,0.8-6.7C148.6,338.9,145.4,338.8,142.3,339.1z"/>
<path class="st7" d="M180.5,337c0.7,0,2.1,0,2.8,0c0.6,5.6-0.3,11.3,0.4,17c0.8,5.3,9.4,5.5,10.5,0.4c1-5.7,0.3-11.6,0.4-17.4
	c0.7,0,2.1,0,2.8,0c-0.3,5.9,0.7,12-0.7,17.8c-2.3,7.2-14.5,6.8-15.9-0.8C180.1,348.4,180.8,342.7,180.5,337z"/>
<path class="st7" d="M208.4,340.9c3.3-4.7,9.7-4.5,14.6-2.7c-0.4,0.7-0.9,1.4-1.3,2.1c-3.2-1.6-7.5-2.2-10.3,0.5
	c0,0.9,0.1,2.6,0.1,3.5c3.3,2.5,7.8,3.2,10.8,6.1c1.9,2.6,0.6,5.8-1.1,8c-4.5,2.3-9.6,1.7-14.1-0.1c0.4-0.5,1.3-1.6,1.7-2.1
	c2.6,1,5.2,2.3,8,1.6c2.9-0.2,4.8-4.1,2.7-6.3c-2.7-2.7-6.9-2.9-9.7-5.5C208.5,344.7,208.7,342.7,208.4,340.9z"/>
<path class="st7" d="M250.5,337c0.7,0,2.2,0,3,0c0,3.3,0,6.7,0,10c3.9,0,7.8,0,11.8-0.1c-0.1-3.3-0.1-6.6-0.1-9.9
	c0.7,0,2.2,0.1,3,0.1c0,7.5-0.1,15.1,0,22.7c-0.7,0.1-2.2,0.3-3,0.3c-0.1-3.7-0.1-7.4,0-11c-3.9-0.1-7.8-0.1-11.7,0
	c0,3.6,0,7.3,0,11c-0.7,0-2.2,0-2.9,0C250.6,352.3,250.6,344.7,250.5,337z"/>
<path class="st7" d="M280.4,337.1c4.6-0.1,9.2-0.1,13.8,0.1c-0.2,0.4-0.5,1.3-0.7,1.7c-3.4,0.3-6.8,0.1-10.2,0.1
	c0,2.6,0,5.3-0.1,7.9c3.4,0.2,7-0.4,10.2,1c-3.1,1.9-6.8,0.8-10.2,1.1c0,3,0,5.9,0,8.9c3.5,0.2,7-0.2,10.5,0.3
	c0.2,0.4,0.6,1.2,0.7,1.5c-4.7,0.3-9.4,0.2-14.1,0.2C280.4,352.3,280.4,344.7,280.4,337.1z"/>
<path class="st7" d="M304.7,337.2c0.8-0.1,2.3-0.2,3-0.3c0,7,0.1,14,0,21c3.9,0.4,8-0.7,11.7,1.1c-4.6,2-9.8,0.7-14.6,0.9
	C304.9,352.3,304.8,344.7,304.7,337.2z"/>
<path class="st7" d="M328.1,337.3c4.1-0.3,8.6-0.9,12.3,1.4c3,1.9,3.7,6.5,1.3,9.2c-2.6,3.3-7.2,3-11,3.5c0,2.9,0.2,5.8,0.5,8.6
	c-0.8,0-2.3,0.1-3.1,0.2C328.2,352.5,328.2,344.9,328.1,337.3 M331.1,339c0,3.3,0,6.7,0,10c2.7-0.2,6,0.5,8-1.8
	c1.8-1.8,1.4-4.7,0.1-6.7C337.1,338.5,333.8,339.1,331.1,339z"/>
<path class="st7" d="M375.9,337.1c0.8-0.1,2.4-0.1,3.2-0.2c2.8,7,5.6,14,8.5,20.9c0.8,1.6-1.7,1.5-2.6,1.8c-0.6-2.2-1.3-4.3-2-6.5
	c-3.8-0.2-7.5-0.2-11.2,0c-0.8,2.3-1.6,4.5-2.4,6.7c-0.8-0.3-1.6-0.6-2.4-0.9C369.7,351.5,373,344.4,375.9,337.1 M372.7,350.9
	c3.1,0.2,6.1,0.2,9.2,0c-1.6-3.6-2.7-7.5-4.7-10.9C375.8,343.6,374.5,347.4,372.7,350.9z"/>
<path class="st7" d="M397.7,337.1c1.4,0,2.8,0,4.2,0c3.3,6.5,6.7,12.9,10.3,19.2c0.2-6.4,0-12.8,0.1-19.2c0.7,0,2.1,0,2.8,0
	c0,7.6,0,15.2,0,22.8c-1.4,0-2.8,0-4.2,0c-3.1-6.5-6.8-12.7-10.3-19c-0.1,6.4,0,12.8-0.1,19.2c-0.7-0.1-2.1-0.2-2.9-0.3
	C397.8,352.2,397.8,344.6,397.7,337.1z"/>
<path class="st7" d="M427.4,337c0.7,0,2.2,0,2.9,0c0,7.7,0,15.4,0,23.1c-0.7,0-2.2-0.1-2.9-0.1C427.4,352.3,427.4,344.7,427.4,337z"
	/>
<path class="st7" d="M442.7,337.3c1.4-0.2,2.8-0.3,4.3-0.4c2,4.8,4.2,9.5,6.2,14.3c3.2-4.2,4.4-9.5,6.7-14.1
	c1.4-0.1,2.9-0.1,4.3-0.1c-0.1,7.7-0.1,15.4,0,23c-0.7,0-2.1,0-2.9,0c0-6.4,0.2-12.8-0.2-19.2c-2.2,4.6-4.3,9.2-6.2,13.9
	c-0.8,0-2.3,0-3.1,0c-2-4.7-4.1-9.3-6.2-13.9c-0.3,6.4,0,12.9-0.2,19.3c-0.7,0-2.1-0.2-2.8-0.2C442.8,352.3,442.8,344.8,442.7,337.3
	z"/>
<path class="st7" d="M473.8,359.1c2.7-7.5,6.1-14.7,9-22.1c0.8,0.1,2.4,0.2,3.2,0.2c2.9,7.2,5.9,14.4,8.8,21.6
	c-0.7,0.2-2.1,0.7-2.8,1c-0.7-2.2-1.4-4.3-2-6.5c-3.8-0.5-7.6-0.3-11.4-0.3c-0.8,2.2-1.6,4.4-2.4,6.7
	C475.5,359.5,474.6,359.3,473.8,359.1 M479.8,350.8c2.9,0.1,5.9,0.2,8.8,0.2c-1.4-3.7-2.8-7.3-4.1-11
	C482.2,343.3,481.3,347.2,479.8,350.8z"/>
<path class="st7" d="M504.5,337c0.7,0,2.2,0.1,3,0.1c0,7,0,14,0,21c3.4,0,6.9-0.4,10.3,0.2c0.2,0.4,0.6,1.2,0.7,1.6
	c-4.6,0.3-9.3,0.2-13.9,0.2C504.6,352.3,504.6,344.6,504.5,337z"/>
<path class="st7" d="M530.7,337.6c3.7-1.5,7.8-0.5,11.3,1.1c-3.8,2.4-9-1.9-12.4,2c0,0.8-0.1,2.4-0.1,3.2c3,2.5,6.9,3.2,10,5.5
	c3.2,2.4,2.3,8-1.4,9.4c-3.9,2-8.3,1-12.2-0.3c0.3-0.9,0.7-1.7,1-2.5c3.3,2.2,9.6,3.6,11.5-1c0.9-7.1-10.1-5.1-11.5-11.1
	C525.9,341.2,528.1,338.5,530.7,337.6z"/>
</svg>
